<?xml version="1.0" encoding="utf-8"?>
<!-- Generator: Adobe Illustrator 18.1.1, SVG Export Plug-In . SVG Version: 6.00 Build 0)  -->
<svg version="1.1"  xmlns="http://www.w3.org/2000/svg" xmlns:xlink="http://www.w3.org/1999/xlink" x="0px" y="0px"
	 viewBox="0 0 48 48" enable-background="new 0 0 48 48" xml:space="preserve">
<polygon fill="#F44336" points="24,3 28.3,7.8 34.5,5.8 35.9,12.1 42.2,13.5 40.2,19.7 45,24 40.2,28.3 42.2,34.5 35.9,35.9 
	34.5,42.2 28.3,40.2 24,45 19.7,40.2 13.5,42.2 12.1,35.9 5.8,34.5 7.8,28.3 3,24 7.8,19.7 5.8,13.5 12.1,12.1 13.5,5.8 19.7,7.8 
	"/>
<g>
	<path fill="#FFFFFF" d="M22.2,26.4H20L19.6,28h-1.7l2.5-8h1.5l2.5,8h-1.7L22.2,26.4z M20.3,25h1.5l-0.7-2.8L20.3,25z"/>
	<path fill="#FFFFFF" d="M27.2,26.6H30V28h-4.4v-8h1.6V26.6z"/>
	<path fill="#FFFFFF" d="M35.6,24.5h-2.5v2.1h3V28h-4.6v-8h4.6v1.3h-3v1.9h2.5V24.5z"/>
	<path fill="#FFFFFF" d="M15.1,25.9c0-1.7-3.4-1.1-3.4-3.8c0-0.8,0.5-2.2,2.5-2.2c2.2,0,2.5,1.9,2.5,2.5h-1.6c0-0.6-0.3-1.1-0.9-1.1
		c-0.9,0-0.9,0.8-0.9,0.9c0,1.5,3.4,0.9,3.4,3.7c0,1.2-0.8,2.2-2.5,2.2c-1.4,0-2.8-0.9-2.8-2.6h1.6c0,0.5,0.1,1.3,1.1,1.3
		C14.6,26.8,15.1,26.7,15.1,25.9z"/>
</g>
</svg>
