<?xml version="1.0" encoding="UTF-8" standalone="no"?>
<!-- Created with Inkscape (http://www.inkscape.org/) -->

<svg
   xmlns:dc="http://purl.org/dc/elements/1.1/"
   xmlns:cc="http://creativecommons.org/ns#"
   xmlns:rdf="http://www.w3.org/1999/02/22-rdf-syntax-ns#"
   xmlns:svg="http://www.w3.org/2000/svg"
   xmlns="http://www.w3.org/2000/svg"
   xmlns:xlink="http://www.w3.org/1999/xlink"
   xmlns:sodipodi="http://sodipodi.sourceforge.net/DTD/sodipodi-0.dtd"
   xmlns:inkscape="http://www.inkscape.org/namespaces/inkscape"
   version="1.1"
   id="svg2"
   xml:space="preserve"
   width="315"
   height="315"
   viewBox="0 0 315 315"
   sodipodi:docname="Watch.svg"
   inkscape:export-filename="D:\Gebruikers bestanden\Downloads\Watch4U2.png"
   inkscape:export-xdpi="15.238095"
   inkscape:export-ydpi="15.238095"
   inkscape:version="0.92.3 (2405546, 2018-03-11)"><metadata
     id="metadata8"><rdf:RDF><cc:Work
         rdf:about=""><dc:format>image/svg+xml</dc:format><dc:type
           rdf:resource="http://purl.org/dc/dcmitype/StillImage" /><dc:title /></cc:Work></rdf:RDF></metadata><defs
     id="defs6"><linearGradient
   id="linearGradient4797"
   inkscape:collect="always"><stop
     id="stop4793"
     offset="0"
     style="stop-color:#ffffff;stop-opacity:0" /><stop
     id="stop4795"
     offset="1"
     style="stop-color:#500000;stop-opacity:0.15686275" /></linearGradient><linearGradient
   inkscape:collect="always"
   id="linearGradient4783"><stop
     style="stop-color:#500000;stop-opacity:0.15686275"
     offset="0"
     id="stop4779" /><stop
     style="stop-color:#ffffff;stop-opacity:0"
     offset="1"
     id="stop4781" /></linearGradient><linearGradient
   id="linearGradient4637"
   inkscape:collect="always"><stop
     id="stop4633"
     offset="0"
     style="stop-color:#a18f50;stop-opacity:0.18229167" /><stop
     id="stop4635"
     offset="1"
     style="stop-color:#a18f50;stop-opacity:0.0625" /></linearGradient><linearGradient
   id="linearGradient4597"
   inkscape:collect="always"><stop
     id="stop4587"
     offset="0"
     style="stop-color:#963200;stop-opacity:1" /><stop
     style="stop-color:#000000;stop-opacity:0.99607843"
     offset="0.22085106"
     id="stop4599" /><stop
     style="stop-color:#963200;stop-opacity:0.99607843"
     offset="0.63521069"
     id="stop4589" /><stop
     style="stop-color:#000000;stop-opacity:0.84705883"
     offset="0.7871806"
     id="stop4593" /><stop
     id="stop4601"
     offset="0.92950666"
     style="stop-color:#642100;stop-opacity:0.94901961;" /><stop
     id="stop4595"
     offset="1"
     style="stop-color:#963200;stop-opacity:1" /></linearGradient><linearGradient
   inkscape:collect="always"
   id="linearGradient4531"><stop
     style="stop-color:#ff8000;stop-opacity:1;"
     offset="0"
     id="stop4527" /><stop
     id="stop4535"
     offset="0.5123269"
     style="stop-color:#fffb00;stop-opacity:0.99607843" /><stop
     style="stop-color:#fff69f;stop-opacity:0.86274511"
     offset="0.84765089"
     id="stop4537" /><stop
     id="stop4539"
     offset="0.90587145"
     style="stop-color:#ffff15;stop-opacity:0.84705883" /><stop
     style="stop-color:#ffb100;stop-opacity:1"
     offset="1"
     id="stop4529" /></linearGradient><clipPath
   clipPathUnits="userSpaceOnUse"
   id="clipPath20"><path
     d="M 0,500 H 500 V 0 H 0 Z"
     id="path18"
     inkscape:connector-curvature="0" /></clipPath><clipPath
   clipPathUnits="userSpaceOnUse"
   id="clipPath248"><path
     d="m 211.796,47.4111 h 77.163 V 13.5166 h -77.163 z"
     id="path246"
     inkscape:connector-curvature="0" /></clipPath>



<linearGradient
   inkscape:collect="always"
   xlink:href="#linearGradient4531"
   id="linearGradient4533"
   x1="132.25583"
   y1="57.66737"
   x2="95.563377"
   y2="182.29494"
   gradientUnits="userSpaceOnUse" /><linearGradient
   gradientTransform="translate(-0.39171878,0.13860138)"
   inkscape:collect="always"
   xlink:href="#linearGradient4597"
   id="linearGradient4533-8"
   x1="134.90749"
   y1="18.953274"
   x2="116.24625"
   y2="215.70573"
   gradientUnits="userSpaceOnUse" /><linearGradient
   inkscape:collect="always"
   xlink:href="#linearGradient4637"
   id="linearGradient4631"
   x1="105.14182"
   y1="198.65607"
   x2="107.22087"
   y2="231.65607"
   gradientUnits="userSpaceOnUse" /><linearGradient
   gradientTransform="matrix(1,0,0,-1,-0.64032871,236.79269)"
   inkscape:collect="always"
   xlink:href="#linearGradient4637"
   id="linearGradient4631-0"
   x1="105.14182"
   y1="198.65607"
   x2="107.22087"
   y2="231.65607"
   gradientUnits="userSpaceOnUse" /><linearGradient
   gradientTransform="matrix(0,0.19945423,0.34991797,0,115.99946,126.44227)"
   inkscape:collect="always"
   xlink:href="#linearGradient4637"
   id="linearGradient4631-0-2"
   x1="105.14182"
   y1="198.65607"
   x2="107.22087"
   y2="231.65607"
   gradientUnits="userSpaceOnUse" /><linearGradient
   gradientTransform="matrix(0,0.19945423,0.34991797,0,-84.29722,126.00293)"
   inkscape:collect="always"
   xlink:href="#linearGradient4637"
   id="linearGradient4631-0-2-8"
   x1="105.14182"
   y1="198.65607"
   x2="107.22087"
   y2="231.65607"
   gradientUnits="userSpaceOnUse" /><linearGradient
   gradientTransform="translate(-200.29667,-0.43934261)"
   inkscape:collect="always"
   xlink:href="#linearGradient4783"
   id="linearGradient4631-4"
   x1="108.3238"
   y1="199.71672"
   x2="107.22087"
   y2="231.65607"
   gradientUnits="userSpaceOnUse" /><linearGradient
   gradientTransform="translate(-200.29667,-0.43934261)"
   inkscape:collect="always"
   xlink:href="#linearGradient4531"
   id="linearGradient4533-3"
   x1="132.25583"
   y1="57.66737"
   x2="95.563377"
   y2="182.29494"
   gradientUnits="userSpaceOnUse" /><linearGradient
   inkscape:collect="always"
   xlink:href="#linearGradient4797"
   id="linearGradient4791"
   gradientUnits="userSpaceOnUse"
   gradientTransform="matrix(1,0,0,-1,-200.937,236.35334)"
   x1="107.79347"
   y1="232.5972"
   x2="106.69054"
   y2="210.97319" /></defs><sodipodi:namedview
     pagecolor="#ffffff"
     bordercolor="#666666"
     borderopacity="1"
     objecttolerance="10"
     gridtolerance="10"
     guidetolerance="10"
     inkscape:pageopacity="0"
     inkscape:pageshadow="2"
     inkscape:window-width="1366"
     inkscape:window-height="705"
     id="namedview4"
     showgrid="false"
     showguides="true"
     inkscape:guide-bbox="true"
     inkscape:zoom="1"
     inkscape:cx="-212.49358"
     inkscape:cy="111.80918"
     inkscape:window-x="-8"
     inkscape:window-y="-8"
     inkscape:window-maximized="1"
     inkscape:current-layer="g1529"
     inkscape:lockguides="false" /><g
     id="g10"
     inkscape:groupmode="layer"
     inkscape:label="apple-watch-1"
     transform="matrix(1.3333333,0,0,-1.3333333,0,314.99998)"><g
       id="g1529"
       transform="translate(0.76826241)"><flowRoot
         xml:space="preserve"
         id="flowRoot1780"
         style="fill:black;fill-opacity:1;stroke:none;font-family:sans-serif;font-style:normal;font-weight:normal;font-size:40px;line-height:1.25;letter-spacing:0px;word-spacing:0px"><flowRegion
           id="flowRegion1782"><rect
             id="rect1784"
             width="384.5"
             height="339.5"
             x="-5637"
             y="-2066" /></flowRegion><flowPara
           id="flowPara1786" /></flowRoot><path
         style="font-style:normal;font-weight:normal;font-size:28.70755768px;line-height:1.25;font-family:sans-serif;letter-spacing:0px;word-spacing:0px;fill:url(#linearGradient4533);fill-opacity:1;stroke:none;stroke-width:0.92304915"
         d="m 60.333958,194.77337 c -13.291975,0 -24.067878,-9.93117 -24.067878,-22.18113 V 64.15608 c 0,-12.24997 10.775903,-22.181128 24.067878,-22.181128 H 157.6554 c 13.29324,0 24.0698,9.931158 24.0698,22.181128 v 108.43616 c 0,12.24996 -10.77656,22.18113 -24.0698,22.18113 z m 0,-4.33322 H 157.6554 c 10.96335,0 19.88158,-8.21927 19.88158,-18.32218 V 63.681815 c 0,-10.101722 -8.91823,-18.320319 -19.88158,-18.320319 H 60.333958 c -10.962025,0 -19.881577,8.218597 -19.881577,18.320319 V 172.11797 c 0,10.10291 8.919552,18.32218 19.881577,18.32218 z m 0,-3.28651 c -8.995355,0 -16.31412,-6.74629 -16.31412,-15.03567 V 63.681815 c 0,-8.290581 7.318765,-15.035667 16.31412,-15.035667 H 157.6554 c 8.99796,0 16.31409,6.745086 16.31412,15.035667 V 172.11797 c 0,8.28938 -7.31616,15.03567 -16.31412,15.03567 z m 48.660722,-14.17051 c 32.72913,0 59.26155,-24.44849 59.26155,-54.60897 0,-30.160496 -26.53242,-54.610828 -59.26155,-54.610828 -32.729151,0 -59.261547,24.450332 -59.261547,54.610828 0,30.16047 26.532396,54.60897 59.261547,54.60897 z m 0,-3.5718 c -30.539334,0 -55.38371,-22.89465 -55.38371,-51.03717 0,-28.142529 24.844376,-51.037168 55.38371,-51.037168 30.53933,0 55.38563,22.894649 55.38563,51.037168 0,28.14252 -24.8463,51.03717 -55.38563,51.03717 z m 0,-2.85856 c 28.8282,0 52.28183,-21.61293 52.28183,-48.17861 0,-26.565694 -23.45363,-48.178615 -52.28183,-48.178615 -28.82821,0 -52.281824,21.612931 -52.281824,48.178615 3e-6,26.56568 23.453614,48.17861 52.281824,48.17861 z m -0.67632,-7.60861 c -1.08193,0 -1.96,-0.80806 -1.96,-1.80628 v -38.23388 -1.12082 -0.0834 c 0,-0.99819 0.87867,-1.80813 1.96191,-1.80813 h 31.59364 c 1.08324,0 1.96191,0.80994 1.96191,1.80813 v 1.20419 c 0,0.99702 -0.87867,1.80628 -1.96191,1.80628 h -28.32506 v 36.42761 c 0,0.99822 -0.87868,1.80628 -1.96191,1.80628 z"
         id="text1298"
         inkscape:connector-curvature="0"
         sodipodi:nodetypes="ssssssssssssssssssssssscssssssssssssssssssssccsssssscsss" /><path
         style="font-style:normal;font-weight:normal;font-size:28.70755768px;line-height:1.25;font-family:sans-serif;letter-spacing:0px;word-spacing:0px;fill:url(#linearGradient4533-8);fill-opacity:1;stroke:none;stroke-width:0.92304915"
         d="m 71.476121,233.55158 c -2.822887,0 -5.111693,-1.60705 -5.111693,-3.59033 l -5.090619,-31.71274 h 93.685011 l -5.09062,31.71274 c 0,1.98328 -2.28881,3.59033 -5.11169,3.59033 z M 185.48529,158.46215 v -21.09921 h 7.1828 c 2.97468,0 5.38758,2.22256 5.38758,4.96495 v 11.1693 c 0,2.74241 -2.4129,4.96496 -5.38758,4.96496 z M 61.273809,38.278684 66.364428,6.5659374 c 0,-1.983277 2.28751,-3.590325 5.111693,-3.590325 h 73.280389 c 2.82288,0 5.11169,1.607048 5.11169,3.590325 l 5.09062,31.7127466 z"
         id="text1298-0"
         inkscape:connector-curvature="0"
         sodipodi:nodetypes="sccccssccsssscccssccc" /><path
         style="fill:url(#linearGradient4631);fill-opacity:1;stroke:none;stroke-width:0.75px;stroke-linecap:butt;stroke-linejoin:miter;stroke-opacity:1"
         d="M 84.809405,233.14015 C 73.963332,227.78161 73.852752,210.49476 68.684403,198.82765 l 78.750007,-0.1875 c -4.70584,11.90292 -3.95927,29.25824 -14.95128,34.875 z"
         id="path4623"
         inkscape:connector-curvature="0"
         sodipodi:nodetypes="ccccc" /><path
         style="fill:url(#linearGradient4631-0);fill-opacity:1;stroke:none;stroke-width:0.75px;stroke-linecap:butt;stroke-linejoin:miter;stroke-opacity:1"
         d="m 84.169071,3.652533 c -10.84607,5.35854 -10.95665,22.64539 -16.125,34.3125 l 78.750009,0.1875 c -4.70584,-11.90292 -3.95927,-29.25824 -14.95128,-34.875 z"
         id="path4623-1"
         inkscape:connector-curvature="0"
         sodipodi:nodetypes="ccccc" /><path
         style="fill:url(#linearGradient4631-0-2);fill-opacity:1;stroke:none;stroke-width:0.19813719px;stroke-linecap:butt;stroke-linejoin:miter;stroke-opacity:1"
         d="m 197.5794,143.35787 c -1.87504,-2.16329 -7.92402,-2.18535 -12.00656,-3.2162 l -0.0656,15.70702 c 4.16504,-0.9386 10.23798,-0.78969 12.20338,-2.9821 z"
         id="path4623-1-0"
         inkscape:connector-curvature="0"
         sodipodi:nodetypes="ccccc" /><path
         style="font-style:normal;font-weight:normal;font-size:28.70755768px;line-height:1.25;font-family:sans-serif;letter-spacing:0px;word-spacing:0px;fill:url(#linearGradient4533-3);fill-opacity:1;stroke:none;stroke-width:0.92304915"
         d="m -139.96272,194.33402 c -13.29197,0 -24.06788,-9.93116 -24.06788,-22.18112 V 63.716741 c 0,-12.249968 10.77591,-22.181131 24.06788,-22.181131 h 97.32146 c 13.29324,0 24.0698,9.931163 24.0698,22.181131 V 172.1529 c 0,12.24996 -10.77656,22.18112 -24.0698,22.18112 z m 0,-4.33322 h 97.32146 c 10.96335,0 19.88158,-8.21926 19.88158,-18.32217 V 63.242478 c 0,-10.101728 -8.91823,-18.320325 -19.88158,-18.320325 h -97.32146 c -10.96202,0 -19.88157,8.218597 -19.88157,18.320325 V 171.67863 c 0,10.10291 8.91955,18.32217 19.88157,18.32217 z m 0,-3.2865 c -8.99535,0 -16.31412,-6.74629 -16.31412,-15.03567 V 63.242478 c 0,-8.290583 7.31877,-15.03567 16.31412,-15.03567 h 97.32146 c 8.99796,0 16.31409,6.745087 16.31412,15.03567 V 171.67863 c 0,8.28938 -7.31616,15.03567 -16.31412,15.03567 z M -91.302,172.54379 c 32.72914,0 59.26157,-24.44849 59.26157,-54.60897 0,-30.160494 -26.53243,-54.610832 -59.26157,-54.610832 -32.72915,0 -59.26154,24.450338 -59.26154,54.610832 0,30.16047 26.53239,54.60897 59.26154,54.60897 z m 0,-3.5718 c -30.53933,0 -55.38371,-22.89465 -55.38371,-51.03717 0,-28.142529 24.84438,-51.037172 55.38371,-51.037172 30.53934,0 55.38565,22.894651 55.38565,51.037172 0,28.14252 -24.84631,51.03717 -55.38565,51.03717 z m 0,-2.85856 c 28.82821,0 52.28185,-21.61293 52.28185,-48.17861 0,-26.565691 -23.45364,-48.178614 -52.28185,-48.178614 -28.8282,0 -52.28182,21.61293 -52.28182,48.178614 0,26.56568 23.45362,48.17861 52.28182,48.17861 z m -0.67632,-7.60861 c -1.08192,0 -1.95999,-0.80806 -1.95999,-1.80628 v -38.23388 -1.12082 -0.0834 c 0,-0.99819 0.87867,-1.80813 1.96191,-1.80813 h 31.59364 c 1.08324,0 1.96191,0.80994 1.96191,1.80813 v 1.20419 c 0,0.99702 -0.87867,1.80628 -1.96191,1.80628 h -28.32506 v 36.42761 c 0,0.99822 -0.87869,1.80628 -1.96191,1.80628 z"
         id="text1298-08"
         inkscape:connector-curvature="0"
         sodipodi:nodetypes="ssssssssssssssssssssssscssssssssssssssssssssccsssssscsss" /><path
         style="font-style:normal;font-weight:normal;font-size:28.70755768px;line-height:1.25;font-family:sans-serif;letter-spacing:0px;word-spacing:0px;fill:#b96431;fill-opacity:1;stroke:none;stroke-width:0.92304915"
         d="m -128.82055,233.11223 c -2.82289,0 -5.1117,-1.60705 -5.1117,-3.59033 l -5.09062,-31.71274 h 93.68503 l -5.09063,31.71274 c 0,1.98328 -2.28881,3.59033 -5.11169,3.59033 z M -14.81138,158.02281 V 136.9236 h 7.1827998 c 2.974682,0 5.387582,2.22256 5.387582,4.96495 v 11.1693 c 0,2.74241 -2.4129,4.96496 -5.387582,4.96496 z M -139.02287,37.839348 -133.93225,6.1265944 c 0,-1.983278 2.28751,-3.590325 5.1117,-3.590325 h 73.28039 c 2.82288,0 5.11169,1.607047 5.11169,3.590325 l 5.09063,31.7127536 z"
         id="text1298-0-8"
         inkscape:connector-curvature="0"
         sodipodi:nodetypes="sccccssccsssscccssccc" /><path
         style="fill:url(#linearGradient4631-4);fill-opacity:1;stroke:none;stroke-width:0.75px;stroke-linecap:butt;stroke-linejoin:miter;stroke-opacity:1"
         d="m -115.48727,232.7008 c -10.84607,-5.35854 -10.95665,-22.64539 -16.125,-34.3125 l 78.75001,-0.1875 c -4.70584,11.90292 -3.95927,29.25824 -14.95128,34.875 z"
         id="path4623-8"
         inkscape:connector-curvature="0"
         sodipodi:nodetypes="ccccc" /><path
         style="fill:url(#linearGradient4791);fill-opacity:1;stroke:none;stroke-width:0.75px;stroke-linecap:butt;stroke-linejoin:miter;stroke-opacity:1"
         d="m -116.1276,3.2131894 c -10.84607,5.3585396 -10.95665,22.6453956 -16.125,34.3125006 l 78.75001,0.1875 C -58.20843,25.81027 -57.46186,8.4549548 -68.45388,2.8381964 Z"
         id="path4623-1-3"
         inkscape:connector-curvature="0"
         sodipodi:nodetypes="ccccc" /><path
         style="fill:url(#linearGradient4631-0-2-8);fill-opacity:1;stroke:none;stroke-width:0.19813719px;stroke-linecap:butt;stroke-linejoin:miter;stroke-opacity:1"
         d="m -2.7172682,142.91853 c -1.87504,-2.16329 -7.9240218,-2.18535 -12.0065618,-3.2162 l -0.0656,15.70702 c 4.16503,-0.9386 10.2379818,-0.78969 12.2033718,-2.9821 z"
         id="path4623-1-0-3"
         inkscape:connector-curvature="0"
         sodipodi:nodetypes="ccccc" /><path
         style="font-style:normal;font-weight:normal;font-size:28.70755768px;line-height:1.25;font-family:sans-serif;letter-spacing:0px;word-spacing:0px;fill:#ff8000;fill-opacity:1;stroke:none;stroke-width:0.92304915"
         d="m -322.92174,234.70289 c -2.82288,0 -5.11084,-1.60705 -5.11084,-3.59033 l -5.09179,-31.71241 h 93.68554 l -5.09033,31.71241 c 0,1.98328 -2.28943,3.59033 -5.11231,3.59033 z m -11.1416,-38.77735 c -13.29197,0 -24.06738,-9.93217 -24.06738,-22.18213 V 65.308353 c 0,-12.249968 10.77541,-22.182128 24.06738,-22.182128 h 97.32129 c 13.29324,0 24.07031,9.93216 24.07031,22.182128 V 173.74341 c 0,12.24996 -10.77707,22.18213 -24.07031,22.18213 z m 0,-4.33447 h 97.32129 c 10.96335,0 19.88086,-8.21789 19.88086,-18.3208 V 64.833746 c 0,-10.101721 -8.91751,-18.320806 -19.88086,-18.320806 h -97.32129 c -10.96202,0 -19.88232,8.219085 -19.88232,18.320806 V 173.27027 c 0,10.10291 8.9203,18.3208 19.88232,18.3208 z m 0,-3.28564 c -8.99536,0 -16.31397,-6.74578 -16.31397,-15.03516 V 64.833746 c 0,-8.290583 7.31861,-15.036623 16.31397,-15.036623 h 97.32129 c 8.99796,0 16.31394,6.74604 16.31397,15.036623 V 173.27027 c 0,8.28938 -7.31601,15.03516 -16.31397,15.03516 z m 48.66064,-14.1709 c 32.72916,0 59.26173,-24.4489 59.26173,-54.60938 0,-30.160501 -26.53257,-54.610839 -59.26173,-54.610839 -32.72914,0 -59.26171,24.450338 -59.26171,54.610839 0,30.16047 26.53257,54.60938 59.26171,54.60938 z m 0,-3.57129 c -30.53932,0 -55.38427,-22.89557 -55.38427,-51.03809 0,-28.142529 24.84495,-51.036624 55.38427,-51.036624 30.53935,0 55.38575,22.894095 55.38575,51.036624 0,28.14252 -24.8464,51.03809 -55.38575,51.03809 z m 0,-2.85938 c 28.82823,0 52.28175,-21.61303 52.28175,-48.17871 0,-26.565699 -23.45352,-48.177249 -52.28175,-48.177249 -28.8282,0 -52.28173,21.611558 -52.28173,48.177249 0,26.56568 23.45353,48.17871 52.28173,48.17871 z m -0.67675,-7.6084 c -1.08192,0 -1.95996,-0.80793 -1.95996,-1.80615 v -38.23389 -1.1206 -0.0835 c 0,-0.99819 0.87965,-1.80762 1.96288,-1.80762 h 31.59229 c 1.08324,0 1.96289,0.80943 1.96289,1.80762 v 1.20409 c 0,0.99702 -0.87965,1.80616 -1.96289,1.80616 h -28.32421 v 36.42773 c 0,0.99822 -0.87822,1.80615 -1.96143,1.80615 z m 77.16797,-0.48193 v -21.09961 h 7.18213 c 2.97468,0 5.38769,2.22343 5.38769,4.96582 v 11.16943 c 0,2.74241 -2.41301,4.96436 -5.38769,4.96436 z M -333.12437,39.43042 -328.03258,7.7180187 c 0,-1.9832776 2.28666,-3.5903326 5.11084,-3.5903326 h 73.28027 c 2.82288,0 5.11231,1.607055 5.11231,3.5903326 l 5.09033,31.7124013 z"
         id="text1298-08-2"
         inkscape:connector-curvature="0" /></g></g></svg>