<?xml version="1.0" encoding="UTF-8" standalone="no"?>
<!-- Created with Inkscape (http://www.inkscape.org/) -->

<svg
   xmlns:dc="http://purl.org/dc/elements/1.1/"
   xmlns:cc="http://creativecommons.org/ns#"
   xmlns:rdf="http://www.w3.org/1999/02/22-rdf-syntax-ns#"
   xmlns:svg="http://www.w3.org/2000/svg"
   xmlns="http://www.w3.org/2000/svg"
   xmlns:sodipodi="http://sodipodi.sourceforge.net/DTD/sodipodi-0.dtd"
   xmlns:inkscape="http://www.inkscape.org/namespaces/inkscape"
   version="1.1"
   id="svg2"
   xml:space="preserve"
   width="315"
   height="315"
   viewBox="0 0 315 315"
   sodipodi:docname="Watch4U_BW.svg"
   inkscape:export-filename="C:\Users\Richard\OneDrive - MBO Utrecht\Watch4U\Watch4U\img\logo\Watch4U.png"
   inkscape:export-xdpi="60.952381"
   inkscape:export-ydpi="60.952381"
   inkscape:version="0.92.4 (5da689c313, 2019-01-14)"><metadata
     id="metadata8"><rdf:RDF><cc:Work
         rdf:about=""><dc:format>image/svg+xml</dc:format><dc:type
           rdf:resource="http://purl.org/dc/dcmitype/StillImage" /><dc:title></dc:title></cc:Work></rdf:RDF></metadata><defs
     id="defs6"><clipPath
   clipPathUnits="userSpaceOnUse"
   id="clipPath20"><path
     d="M 0,500 H 500 V 0 H 0 Z"
     id="path18"
     inkscape:connector-curvature="0" /></clipPath><clipPath
   clipPathUnits="userSpaceOnUse"
   id="clipPath248"><path
     d="m 211.796,47.4111 h 77.163 V 13.5166 h -77.163 z"
     id="path246"
     inkscape:connector-curvature="0" /></clipPath>



</defs><sodipodi:namedview
     pagecolor="#ffffff"
     bordercolor="#666666"
     borderopacity="1"
     objecttolerance="10"
     gridtolerance="10"
     guidetolerance="10"
     inkscape:pageopacity="0"
     inkscape:pageshadow="2"
     inkscape:window-width="1920"
     inkscape:window-height="1001"
     id="namedview4"
     showgrid="false"
     showguides="true"
     inkscape:guide-bbox="true"
     inkscape:zoom="1.4142136"
     inkscape:cx="-64.597169"
     inkscape:cy="163.37002"
     inkscape:window-x="-9"
     inkscape:window-y="-9"
     inkscape:window-maximized="1"
     inkscape:current-layer="g913"
     inkscape:lockguides="false" /><g
     id="g10"
     inkscape:groupmode="layer"
     inkscape:label="apple-watch-1"
     transform="matrix(1.3333333,0,0,-1.3333333,0,314.99998)"><g
       id="g1529"
       transform="translate(0.76826241)"><flowRoot
         xml:space="preserve"
         id="flowRoot1780"
         style="fill:black;fill-opacity:1;stroke:none;font-family:sans-serif;font-style:normal;font-weight:normal;font-size:40px;line-height:1.25;letter-spacing:0px;word-spacing:0px"><flowRegion
           id="flowRegion1782"><rect
             id="rect1784"
             width="384.5"
             height="339.5"
             x="-5637"
             y="-2066" /></flowRegion><flowPara
           id="flowPara1786" /></flowRoot><g
         id="g913"
         transform="translate(-0.06787499,2.5281248e-6)"><path
           sodipodi:nodetypes="ccccsccccccssccccccccccccccccccscccscscsccccccsccscccscccscccccccccsccccccccccccccccccccccccccccccccccccccccccccccccc"
           inkscape:connector-curvature="0"
           id="text1298"
           transform="matrix(0.75000002,0,0,-0.75000002,-0.76826241,236.24999)"
           d="m 181.41211,3.3085938 -0.0312,32.8710942 78.14258,0.07422 c 9.02826,0.0086 15.58577,1.916889 19.67578,5.72461 4.09006,3.750947 6.13263,9.71529 6.125,17.890625 -0.008,8.288881 -2.14492,14.274762 -6.41016,17.960937 -4.26523,3.686175 -10.74374,5.525899 -19.43554,5.517578 l -78.14258,-0.07422 -0.0293,32.871092 79.99219,0.0762 c 15.42094,0.0148 27.25771,-4.71427 35.50976,-14.1875 8.25211,-9.529996 12.38696,-23.577752 12.4043,-42.142575 0.0173,-18.564823 -4.09188,-32.620233 -12.32617,-42.166016 C 288.65243,8.1788269 276.79733,3.3995826 261.32031,3.3847656 Z m 73.39062,134.1953162 -0.0176,17.28906 -73.51563,-0.0703 -0.0312,33.29687 72.61914,59.42578 23.7207,0.0234 0.0566,-61.40039 29.1875,0.0273 0.0293,-31.2539 -29.1875,-0.0274 0.0176,-17.28711 z m -45.29882,48.49804 45.25195,0.043 -0.0332,36.875 z m 19.21093,69.28907 c -4.13194,0 -7.94726,0.65625 -11.44726,1.96875 -3.4757,1.3125 -6.39236,3.17187 -8.75,5.57812 -2.45486,2.50347 -4.32704,5.50586 -5.61524,9.00586 -1.28819,3.5 -1.93164,7.40104 -1.93164,11.70313 0,4.61805 0.66906,8.68858 2.00586,12.21289 1.36111,3.5243 3.2678,6.46462 5.72266,8.82226 2.45486,2.35764 5.38433,4.13325 8.78711,5.32422 3.42708,1.19097 7.15864,1.78516 11.19336,1.78516 2.72222,0 4.86046,-0.13303 6.41601,-0.40039 1.55556,-0.26737 3.21984,-0.6556 4.99414,-1.16602 1.36111,-0.38889 2.66276,-0.852 3.90235,-1.38672 1.23958,-0.53472 2.53928,-1.10525 3.90039,-1.71289 v -12.97851 h -1.45899 c -0.65625,0.58333 -1.49479,1.27604 -2.51562,2.07812 -1.02083,0.80208 -2.12544,1.5549 -3.31641,2.25977 -1.40972,0.875 -2.95377,1.5677 -4.63086,2.07812 -1.65277,0.51042 -3.32986,0.76563 -5.03125,0.76563 -1.7743,0 -3.57356,-0.27887 -5.39648,-0.8379 -1.82292,-0.58333 -3.47439,-1.54405 -4.95703,-2.88085 -1.45834,-1.3125 -2.67426,-3.11177 -3.64649,-5.39649 -0.94791,-2.28472 -1.42187,-5.12847 -1.42187,-8.53125 0,-3.25694 0.4375,-6.02778 1.3125,-8.3125 0.8993,-2.28472 2.06597,-4.11849 3.5,-5.50391 1.50694,-1.43402 3.14757,-2.45486 4.92187,-3.0625 1.77431,-0.63194 3.64649,-0.94921 5.61524,-0.94921 1.7743,0 3.43858,0.26801 4.99414,0.80273 1.55555,0.53472 3.00108,1.19097 4.33789,1.96875 1.3125,0.77778 2.47917,1.56706 3.5,2.36914 1.04514,0.80208 1.90929,1.49479 2.58984,2.07813 h 1.60352 V 259.8125 c -0.99653,-0.48611 -2.1632,-1.00933 -3.5,-1.56836 -1.3125,-0.58333 -2.78364,-1.10655 -4.41211,-1.56836 -1.55556,-0.41319 -3.25629,-0.74132 -5.10352,-0.98437 -1.82291,-0.26736 -3.87738,-0.40039 -6.16211,-0.40039 z M 6.3925781,256.34766 21.011719,310.63477 h 15.496093 l 9.478516,-35.36524 9.734375,35.36524 h 15.494141 l 14.621094,-54.28711 h -14.25586 l -8.75,37.37109 -9.515625,-37.37109 H 39.351562 l -9.990234,37.37109 -8.349609,-37.37109 z m 102.8125019,0 -20.052736,54.28711 h 14.109376 l 3.75586,-10.97461 h 20.125 l 3.75586,10.97461 h 14.47265 l -20.05078,-54.28711 z m 38.60937,0 v 10.5 h 16.95313 v 43.78711 h 14 v -43.78711 h 16.95312 v -10.5 z m 110.43164,0 v 54.28711 h 14 v -23.91602 h 20.67188 v 23.91602 h 14 v -54.28711 h -14 v 19.87109 h -20.67188 v -19.87109 z m -141.16601,13.89062 6.67187,19.46875 H 110.4082 Z"
           style="font-style:normal;font-weight:normal;font-size:28.70755768px;line-height:1.25;font-family:sans-serif;letter-spacing:0px;word-spacing:0px;fill:#000000;fill-opacity:1;stroke:none;stroke-width:0.9569186;stroke-opacity:0.99607843" /><path
           sodipodi:nodetypes="ssssssssssssssssssssssscssssssssssssssssssssccsssssscsss"
           inkscape:connector-curvature="0"
           id="text1298-2"
           d="m 22.07414,202.99483 c -10.14322,0 -18.3663985,-7.84968 -18.3663985,-17.53217 V 99.753686 c 0,-9.682497 8.2231785,-17.532179 18.3663985,-17.532179 h 74.266795 c 10.144195,0 18.367865,7.849682 18.367865,17.532179 v 85.708974 c 0,9.68249 -8.22367,17.53217 -18.367865,17.53217 z m 0,-3.42502 h 74.266795 c 8.366235,0 15.171805,-6.49658 15.171805,-14.48202 V 99.378823 c 0,-7.984504 -6.80557,-14.480564 -15.171805,-14.480564 H 22.07414 c -8.365216,0 -15.1717981,6.49606 -15.1717981,14.480564 v 85.708967 c 0,7.98544 6.8065821,14.48202 15.1717981,14.48202 z m 0,-2.59768 c -6.864435,0 -12.4494404,-5.33233 -12.4494404,-11.88434 V 99.378823 c 0,-6.552953 5.5850054,-11.884337 12.4494404,-11.884337 h 74.266795 c 6.866425,0 12.449425,5.331384 12.449455,11.884337 v 85.708967 c 0,6.55201 -5.58303,11.88434 -12.449455,11.88434 z m 37.1334,-11.20051 c 24.975867,0 45.22298,-19.32431 45.22298,-43.16345 0,-23.83913 -20.247113,-43.16492 -45.22298,-43.16492 -24.975887,0 -45.222981,19.32579 -45.222981,43.16492 0,23.83913 20.247094,43.16345 45.222981,43.16345 z m 0,-2.82318 c -23.304817,0 -42.26377,-18.09615 -42.26377,-40.34027 0,-22.24412 18.958953,-40.34027 42.26377,-40.34027 23.304822,0 42.26524,18.09616 42.26524,40.34027 0,22.24412 -18.960418,40.34027 -42.26524,40.34027 z m 0,-2.25943 c 21.999033,0 39.896706,-17.08308 39.896706,-38.08084 0,-20.99777 -17.897673,-38.08083 -39.896706,-38.08083 -21.999046,0 -39.896692,17.08307 -39.896692,38.08083 0,20.99776 17.897646,38.08084 39.896692,38.08084 z m -0.516106,-6.01392 c -0.82563,0 -1.495692,-0.6387 -1.495692,-1.4277 v -30.22042 -0.88591 -0.0659 c 0,-0.78898 0.67052,-1.42916 1.49715,-1.42916 h 24.109372 c 0.82662,0 1.497144,0.64018 1.497144,1.42916 v 0.9518 c 0,0.78805 -0.670524,1.4277 -1.497144,1.4277 H 61.187172 v 28.79273 c 0,0.789 -0.670528,1.4277 -1.497149,1.4277 z"
           style="font-style:normal;font-weight:normal;font-size:28.70755768px;line-height:1.25;font-family:sans-serif;letter-spacing:0px;word-spacing:0px;fill:#000000;fill-opacity:1;stroke:none;stroke-width:0.71687591" /><path
           sodipodi:nodetypes="sccccssccsssscccssccc"
           inkscape:connector-curvature="0"
           id="text1298-0"
           d="m 30.576815,233.6455 c -2.15417,0 -3.900773,-1.27023 -3.900773,-2.83783 l -3.884694,-25.06605 h 71.49181 l -3.88469,25.06605 c 0,1.5676 -1.746613,2.83783 -3.900779,2.83783 z m 87.001355,-59.3514 v -16.67702 h 5.48125 c 2.27,0 4.1113,1.75675 4.1113,3.92434 v 8.82832 c 0,2.16763 -1.8413,3.92436 -4.1113,3.92436 z M 22.791348,79.299948 26.676042,54.233884 c 0,-1.567601 1.745618,-2.837827 3.900773,-2.837827 h 55.920874 c 2.154166,0 3.900779,1.270226 3.900779,2.837827 l 3.88469,25.066064 z"
           style="font-style:normal;font-weight:normal;font-size:28.70755768px;line-height:1.25;font-family:sans-serif;letter-spacing:0px;word-spacing:0px;fill:#000000;fill-opacity:1;stroke:none;stroke-width:0.71687591" /><path
           sodipodi:nodetypes="ccccc"
           inkscape:connector-curvature="0"
           id="path4623"
           d="M 40.751559,233.3203 C 32.474826,229.08486 32.390442,215.42117 28.44643,206.19937 l 60.094782,-0.1482 c -3.591063,9.40818 -3.021347,23.126 -11.409448,27.56554 z"
           style="fill:#000000;fill-opacity:1;stroke:none;stroke-width:0.58247924px;stroke-linecap:butt;stroke-linejoin:miter;stroke-opacity:1" /><path
           sodipodi:nodetypes="ccccc"
           inkscape:connector-curvature="0"
           id="path4623-1"
           d="M 40.26291,51.931101 C 31.986184,56.166543 31.9018,69.830238 27.957789,79.052027 L 88.052577,79.20023 C 84.461514,69.79205 85.031231,56.074242 76.643129,51.634703 Z"
           style="fill:#000000;fill-opacity:1;stroke:none;stroke-width:0.58247924px;stroke-linecap:butt;stroke-linejoin:miter;stroke-opacity:1" /><path
           sodipodi:nodetypes="ccccc"
           inkscape:connector-curvature="0"
           id="path4623-1-0"
           d="m 126.80727,162.35553 c -1.43085,-1.70988 -6.04687,-1.72731 -9.1623,-2.5421 l -0.05,12.41497 c 3.17836,-0.74189 7.81269,-0.62418 9.3125,-2.35708 z"
           style="fill:#000000;fill-opacity:1;stroke:none;stroke-width:0.15388107px;stroke-linecap:butt;stroke-linejoin:miter;stroke-opacity:1" /></g></g></g></svg>