<?xml version="1.0" encoding="UTF-8" standalone="no"?>
<!-- Created with Inkscape (http://www.inkscape.org/) -->

<svg
   xmlns:dc="http://purl.org/dc/elements/1.1/"
   xmlns:cc="http://creativecommons.org/ns#"
   xmlns:rdf="http://www.w3.org/1999/02/22-rdf-syntax-ns#"
   xmlns:svg="http://www.w3.org/2000/svg"
   xmlns="http://www.w3.org/2000/svg"
   xmlns:sodipodi="http://sodipodi.sourceforge.net/DTD/sodipodi-0.dtd"
   xmlns:inkscape="http://www.inkscape.org/namespaces/inkscape"
   version="1.1"
   id="svg2"
   xml:space="preserve"
   width="315"
   height="315"
   viewBox="0 0 315 315"
   sodipodi:docname="Watch4U.svg"
   inkscape:export-filename="D:\Gebruikers bestanden\Downloads\Watch4U2.png"
   inkscape:export-xdpi="15.238095"
   inkscape:export-ydpi="15.238095"
   inkscape:version="0.92.3 (2405546, 2018-03-11)"><metadata
     id="metadata8"><rdf:RDF><cc:Work
         rdf:about=""><dc:format>image/svg+xml</dc:format><dc:type
           rdf:resource="http://purl.org/dc/dcmitype/StillImage" /><dc:title /></cc:Work></rdf:RDF></metadata><defs
     id="defs6"><clipPath
   clipPathUnits="userSpaceOnUse"
   id="clipPath20"><path
     d="M 0,500 H 500 V 0 H 0 Z"
     id="path18"
     inkscape:connector-curvature="0" /></clipPath><clipPath
   clipPathUnits="userSpaceOnUse"
   id="clipPath248"><path
     d="m 211.796,47.4111 h 77.163 V 13.5166 h -77.163 z"
     id="path246"
     inkscape:connector-curvature="0" /></clipPath>



</defs><sodipodi:namedview
     pagecolor="#ffffff"
     bordercolor="#666666"
     borderopacity="1"
     objecttolerance="10"
     gridtolerance="10"
     guidetolerance="10"
     inkscape:pageopacity="0"
     inkscape:pageshadow="2"
     inkscape:window-width="1920"
     inkscape:window-height="1017"
     id="namedview4"
     showgrid="false"
     showguides="true"
     inkscape:guide-bbox="true"
     inkscape:zoom="1.4142136"
     inkscape:cx="403.85452"
     inkscape:cy="163.37002"
     inkscape:window-x="-8"
     inkscape:window-y="-8"
     inkscape:window-maximized="1"
     inkscape:current-layer="g1529"
     inkscape:lockguides="false" /><g
     id="g10"
     inkscape:groupmode="layer"
     inkscape:label="apple-watch-1"
     transform="matrix(1.3333333,0,0,-1.3333333,0,314.99998)"><g
       id="g1529"
       transform="translate(0.76826241)"><flowRoot
         xml:space="preserve"
         id="flowRoot1780"
         style="fill:black;fill-opacity:1;stroke:none;font-family:sans-serif;font-style:normal;font-weight:normal;font-size:40px;line-height:1.25;letter-spacing:0px;word-spacing:0px"><flowRegion
           id="flowRegion1782"><rect
             id="rect1784"
             width="384.5"
             height="339.5"
             x="-5637"
             y="-2066" /></flowRegion><flowPara
           id="flowPara1786" /></flowRoot><path
         style="font-style:normal;font-weight:normal;font-size:28.70755768px;line-height:1.25;font-family:sans-serif;letter-spacing:0px;word-spacing:0px;fill:#ff8000;fill-opacity:1;stroke:none;stroke-width:0.9569186"
         d="M 181.41211 3.3085938 L 181.38086 36.179688 L 259.52344 36.253906 C 268.5517 36.262549 275.10921 38.170795 279.19922 41.978516 C 283.28928 45.729463 285.33185 51.693806 285.32422 59.869141 C 285.31648 68.158022 283.1793 74.143903 278.91406 77.830078 C 274.64883 81.516253 268.17032 83.355977 259.47852 83.347656 L 181.33594 83.273438 L 181.30664 116.14453 L 261.29883 116.2207 C 276.71977 116.23547 288.55654 111.50643 296.80859 102.0332 C 305.0607 92.503204 309.19555 78.455448 309.21289 59.890625 C 309.23023 41.325802 305.12101 27.270392 296.88672 17.724609 C 288.65243 8.1788269 276.79733 3.3995826 261.32031 3.3847656 L 181.41211 3.3085938 z M 42.027344 3.7070312 C 39.14965 3.7070312 36.816406 5.4012809 36.816406 7.4921875 L 31.626953 40.925781 L 127.13086 40.925781 L 121.94141 7.4921875 C 121.94141 5.4012809 119.60816 3.7070312 116.73047 3.7070312 L 42.027344 3.7070312 z M 30.269531 44.443359 C 16.719492 44.443359 5.734375 54.913432 5.734375 67.828125 L 5.734375 182.14844 C 5.734375 195.06314 16.719492 205.5332 30.269531 205.5332 L 129.48047 205.5332 C 143.0318 205.5332 154.01758 195.06314 154.01758 182.14844 L 154.01758 67.828125 C 154.01758 54.913432 143.0318 44.443359 129.48047 44.443359 L 30.269531 44.443359 z M 30.269531 49.011719 L 129.48047 49.011719 C 140.65667 49.011719 149.74805 57.676992 149.74805 68.328125 L 149.74805 182.64844 C 149.74805 193.29832 140.65667 201.96289 129.48047 201.96289 L 30.269531 201.96289 C 19.094678 201.96289 10.001953 193.29832 10.001953 182.64844 L 10.001953 68.328125 C 10.001953 57.676992 19.094678 49.011719 30.269531 49.011719 z M 30.269531 52.476562 C 21.099531 52.476562 13.638672 59.588939 13.638672 68.328125 L 13.638672 182.64844 C 13.638672 191.3889 21.099531 198.5 30.269531 198.5 L 129.48047 198.5 C 138.65312 198.5 146.1113 191.3889 146.11133 182.64844 L 146.11133 68.328125 C 146.11133 59.588939 138.65312 52.476562 129.48047 52.476562 L 30.269531 52.476562 z M 79.875 67.416016 C 113.23957 67.416016 140.28711 93.191175 140.28711 124.98828 C 140.28711 156.7854 113.23957 182.5625 79.875 182.5625 C 46.510413 182.5625 19.462891 156.7854 19.462891 124.98828 C 19.462891 93.191189 46.510413 67.416016 79.875 67.416016 z M 79.875 71.181641 C 48.742745 71.181641 23.416016 95.318642 23.416016 124.98828 C 23.416016 154.65793 48.742745 178.79492 79.875 178.79492 C 111.00725 178.79492 136.33594 154.65792 136.33594 124.98828 C 136.33594 95.318642 111.00725 71.181641 79.875 71.181641 z M 79.875 74.195312 C 109.2629 74.195312 133.17188 96.981042 133.17188 124.98828 C 133.17188 152.99553 109.2629 175.78125 79.875 175.78125 C 50.487091 175.78125 26.578125 152.99552 26.578125 124.98828 C 26.578128 96.981042 50.487091 74.195312 79.875 74.195312 z M 79.185547 82.216797 C 78.082614 82.216797 77.1875 83.068707 77.1875 84.121094 L 77.1875 124.42969 L 77.1875 125.61133 L 77.1875 125.69922 C 77.1875 126.75158 78.083229 127.60547 79.1875 127.60547 L 111.39453 127.60547 C 112.4988 127.60547 113.39453 126.75158 113.39453 125.69922 L 113.39453 124.42969 C 113.39453 123.37857 112.4988 122.52539 111.39453 122.52539 L 82.519531 122.52539 L 82.519531 84.121094 C 82.519531 83.068707 81.623797 82.216797 80.519531 82.216797 L 79.185547 82.216797 z M 158.25 82.871094 L 158.25 105.11523 L 165.57227 105.11523 C 168.60469 105.11523 171.06445 102.77206 171.06445 99.880859 L 171.06445 88.105469 C 171.06445 85.214255 168.60469 82.871094 165.57227 82.871094 L 158.25 82.871094 z M 254.80273 137.50391 L 254.78516 154.79297 L 181.26953 154.72266 L 181.23828 188.01953 L 253.85742 247.44531 L 277.57812 247.46875 L 277.63477 186.06836 L 306.82227 186.0957 L 306.85156 154.8418 L 277.66406 154.81445 L 277.68164 137.52734 L 254.80273 137.50391 z M 209.50391 186.00195 L 254.75586 186.04492 L 254.72266 222.91992 L 209.50391 186.00195 z M 31.626953 209.57617 L 36.816406 243.00977 C 36.816406 245.10067 39.148328 246.79492 42.027344 246.79492 L 116.73047 246.79492 C 119.60816 246.79492 121.94141 245.10067 121.94141 243.00977 L 127.13086 209.57617 L 31.626953 209.57617 z M 228.71484 255.29102 C 224.5829 255.29102 220.76758 255.94727 217.26758 257.25977 C 213.79188 258.57227 210.87522 260.43164 208.51758 262.83789 C 206.06272 265.34136 204.19054 268.34375 202.90234 271.84375 C 201.61415 275.34375 200.9707 279.24479 200.9707 283.54688 C 200.9707 288.16493 201.63976 292.23546 202.97656 295.75977 C 204.33767 299.28407 206.24436 302.22439 208.69922 304.58203 C 211.15408 306.93967 214.08355 308.71528 217.48633 309.90625 C 220.91341 311.09722 224.64497 311.69141 228.67969 311.69141 C 231.40191 311.69141 233.54015 311.55838 235.0957 311.29102 C 236.65126 311.02365 238.31554 310.63542 240.08984 310.125 C 241.45095 309.73611 242.7526 309.273 243.99219 308.73828 C 245.23177 308.20356 246.53147 307.63303 247.89258 307.02539 L 247.89258 294.04688 L 246.43359 294.04688 C 245.77734 294.63021 244.9388 295.32292 243.91797 296.125 C 242.89714 296.92708 241.79253 297.6799 240.60156 298.38477 C 239.19184 299.25977 237.64779 299.95247 235.9707 300.46289 C 234.31793 300.97331 232.64084 301.22852 230.93945 301.22852 C 229.16515 301.22852 227.36589 300.94965 225.54297 300.39062 C 223.72005 299.80729 222.06858 298.84657 220.58594 297.50977 C 219.1276 296.19727 217.91168 294.398 216.93945 292.11328 C 215.99154 289.82856 215.51758 286.98481 215.51758 283.58203 C 215.51758 280.32509 215.95508 277.55425 216.83008 275.26953 C 217.72938 272.98481 218.89605 271.15104 220.33008 269.76562 C 221.83702 268.3316 223.47765 267.31076 225.25195 266.70312 C 227.02626 266.07118 228.89844 265.75391 230.86719 265.75391 C 232.64149 265.75391 234.30577 266.02192 235.86133 266.55664 C 237.41688 267.09136 238.86241 267.74761 240.19922 268.52539 C 241.51172 269.30317 242.67839 270.09245 243.69922 270.89453 C 244.74436 271.69661 245.60851 272.38932 246.28906 272.97266 L 247.89258 272.97266 L 247.89258 259.8125 C 246.89605 259.32639 245.72938 258.80317 244.39258 258.24414 C 243.08008 257.66081 241.60894 257.13759 239.98047 256.67578 C 238.42491 256.26259 236.72418 255.93446 234.87695 255.69141 C 233.05404 255.42405 230.99957 255.29102 228.71484 255.29102 z M 6.3925781 256.34766 L 21.011719 310.63477 L 36.507812 310.63477 L 45.986328 275.26953 L 55.720703 310.63477 L 71.214844 310.63477 L 85.835938 256.34766 L 71.580078 256.34766 L 62.830078 293.71875 L 53.314453 256.34766 L 39.351562 256.34766 L 29.361328 293.71875 L 21.011719 256.34766 L 6.3925781 256.34766 z M 109.20508 256.34766 L 89.152344 310.63477 L 103.26172 310.63477 L 107.01758 299.66016 L 127.14258 299.66016 L 130.89844 310.63477 L 145.37109 310.63477 L 125.32031 256.34766 L 109.20508 256.34766 z M 147.81445 256.34766 L 147.81445 266.84766 L 164.76758 266.84766 L 164.76758 310.63477 L 178.76758 310.63477 L 178.76758 266.84766 L 195.7207 266.84766 L 195.7207 256.34766 L 147.81445 256.34766 z M 258.24609 256.34766 L 258.24609 310.63477 L 272.24609 310.63477 L 272.24609 286.71875 L 292.91797 286.71875 L 292.91797 310.63477 L 306.91797 310.63477 L 306.91797 256.34766 L 292.91797 256.34766 L 292.91797 276.21875 L 272.24609 276.21875 L 272.24609 256.34766 L 258.24609 256.34766 z M 117.08008 270.23828 L 123.75195 289.70703 L 110.4082 289.70703 L 117.08008 270.23828 z "
         transform="matrix(0.75000002,0,0,-0.75000002,-0.76826241,236.24999)"
         id="text1298" /></g></g></svg>