<?xml version="1.0" encoding="UTF-8" ?>
<!DOCTYPE svg PUBLIC "-//W3C//DTD SVG 1.1//EN" "http://www.w3.org/Graphics/SVG/1.1/DTD/svg11.dtd">
<svg width="1414pt" height="707pt" viewBox="0 0 1414 707" version="1.1" xmlns="http://www.w3.org/2000/svg">
<path fill="#ffffff" d=" M 0.00 0.00 L 1414.00 0.00 L 1414.00 707.00 L 0.00 707.00 L 0.00 0.00 Z" />
<path fill="#191919" d=" M 704.50 66.62 C 706.60 65.45 709.02 65.72 711.11 66.79 C 920.36 159.92 1129.64 253.00 1338.89 346.15 C 1344.10 347.85 1345.34 355.11 1342.16 359.14 C 1339.92 361.54 1336.63 362.37 1333.77 363.75 C 1125.89 456.23 918.03 548.74 710.15 641.21 C 708.21 642.09 706.01 641.77 704.16 640.86 C 494.67 547.56 285.10 454.44 75.62 361.14 C 69.50 358.44 69.90 348.39 76.23 346.19 C 285.63 252.95 495.08 159.80 704.50 66.62 Z" />
<path fill="#ffffff" d=" M 97.43 353.86 C 300.00 263.53 502.71 173.52 705.30 83.26 C 706.67 82.46 708.29 82.29 709.68 83.18 C 906.31 170.71 1102.96 258.18 1299.59 345.69 C 1305.67 348.41 1311.79 351.05 1317.83 353.87 C 1156.33 425.59 994.93 497.53 833.47 569.32 C 791.56 588.01 749.60 606.57 707.73 625.32 C 504.25 534.94 300.89 444.29 97.43 353.86 Z" />
<path fill="#191919" d=" M 592.95 217.76 C 599.01 214.79 606.64 216.34 611.77 220.52 C 611.94 223.22 609.42 225.09 608.12 227.20 C 604.45 225.30 600.32 222.17 596.16 224.66 C 596.23 225.85 596.26 227.04 596.51 228.21 C 600.05 231.76 605.57 232.22 609.12 235.80 C 614.07 239.77 613.98 248.23 608.94 252.10 C 602.63 257.17 592.87 255.61 587.12 250.38 C 588.37 248.36 589.14 245.88 591.00 244.34 C 594.41 245.70 597.87 248.53 601.75 247.20 C 604.39 245.83 603.55 242.12 601.32 240.81 C 597.26 238.17 591.94 237.07 589.16 232.75 C 585.52 227.94 587.57 220.35 592.95 217.76 Z" />
<path fill="#191919" d=" M 626.69 226.92 C 626.57 221.39 631.55 216.70 636.93 216.38 C 642.27 215.58 647.51 217.65 651.68 220.88 C 650.44 223.01 649.10 225.08 647.72 227.12 C 643.81 225.49 639.64 222.08 635.38 224.74 C 635.21 227.13 636.22 229.29 638.50 230.24 C 643.15 232.67 649.12 234.29 651.30 239.63 C 654.08 245.10 650.54 252.00 645.04 254.05 C 638.85 256.61 631.78 254.58 626.56 250.81 C 627.54 248.50 628.75 246.31 629.98 244.12 C 633.20 245.52 636.34 247.99 640.06 247.47 C 642.96 247.17 643.45 243.16 641.50 241.47 C 638.70 239.06 634.89 238.35 631.98 236.12 C 629.00 234.03 626.56 230.71 626.69 226.92 Z" />
<path fill="#191919" d=" M 778.32 215.93 C 779.70 216.28 781.13 216.69 782.11 217.83 C 788.66 224.13 795.32 230.33 801.74 236.77 C 802.71 230.10 801.31 223.40 802.30 216.74 C 805.03 216.71 807.77 216.71 810.52 216.76 C 810.55 229.73 810.89 242.73 810.34 255.69 C 808.80 254.96 807.21 254.30 806.05 253.03 C 799.60 246.48 793.10 240.00 786.62 233.49 C 786.57 240.48 786.68 247.48 786.55 254.47 C 783.77 254.53 780.99 254.54 778.22 254.48 C 778.21 241.63 777.97 228.77 778.32 215.93 Z" />
<path fill="#191919" d=" M 835.47 216.92 C 842.25 214.44 850.55 218.39 852.44 225.45 C 854.51 231.82 850.97 239.53 844.48 241.61 C 837.64 244.39 829.06 240.10 827.30 232.91 C 825.23 226.51 829.23 219.14 835.47 216.92 Z" />
<path fill="#191919" d=" M 562.29 254.47 C 562.19 241.90 562.14 229.32 562.32 216.75 C 565.08 216.70 567.84 216.71 570.61 216.75 C 570.77 229.32 570.72 241.90 570.64 254.48 C 567.85 254.53 565.07 254.54 562.29 254.47 Z" />
<path fill="#191919" d=" M 667.74 232.00 C 667.84 226.91 667.39 221.78 668.16 216.72 C 670.91 216.70 673.68 216.71 676.45 216.76 C 676.65 224.55 676.38 232.35 676.57 240.14 C 676.64 244.31 681.13 247.51 685.11 246.29 C 687.34 245.39 689.61 243.48 689.74 240.90 C 690.14 232.85 689.33 224.76 690.24 216.73 C 693.02 216.70 695.81 216.71 698.60 216.76 C 698.76 224.51 698.67 232.26 698.68 240.00 C 698.82 246.61 693.98 252.84 687.60 254.48 C 681.15 256.64 673.65 253.61 670.08 247.92 C 667.01 243.19 667.81 237.34 667.74 232.00 Z" />
<path fill="#191919" d=" M 717.22 254.48 C 717.16 241.90 717.11 229.32 717.25 216.75 C 725.33 216.69 733.41 216.68 741.49 216.76 C 741.55 219.36 741.56 221.97 741.51 224.58 C 736.19 224.72 730.87 224.64 725.56 224.65 C 725.54 226.91 725.54 229.16 725.55 231.42 C 729.96 231.43 734.37 231.37 738.78 231.49 C 738.81 234.10 738.81 236.72 738.74 239.33 C 734.34 239.40 729.94 239.37 725.54 239.37 C 725.54 241.79 725.54 244.21 725.55 246.63 C 730.86 246.64 736.17 246.58 741.49 246.68 C 741.55 249.27 741.56 251.87 741.51 254.47 C 733.41 254.57 725.32 254.55 717.22 254.48 Z" />
<path fill="#ffffff" d=" M 836.50 223.75 C 840.80 220.71 847.17 224.88 846.42 229.99 C 846.08 235.22 838.69 237.82 835.28 233.74 C 832.23 231.01 833.14 225.81 836.50 223.75 Z" />
<path fill="#191919" d=" M 826.66 248.27 C 835.18 247.53 843.81 247.59 852.34 248.24 C 851.82 250.40 853.49 253.81 851.17 255.11 C 843.20 255.41 835.21 255.14 827.23 255.23 C 826.93 252.91 826.76 250.59 826.66 248.27 Z" />
<path fill="#191919" d=" M 584.72 306.17 C 597.21 304.67 610.96 306.74 620.93 314.91 C 629.71 322.05 634.25 333.15 635.67 344.14 C 637.39 357.84 636.44 372.51 629.65 384.80 C 624.09 395.02 613.57 402.02 602.17 403.92 C 589.75 405.99 576.09 404.79 565.42 397.60 C 554.62 390.40 549.02 377.58 547.61 365.03 C 546.26 350.86 547.22 335.54 555.26 323.32 C 561.67 313.32 573.04 307.27 584.72 306.17 Z" />
<path fill="#191919" d=" M 764.51 312.68 C 770.83 307.57 779.15 306.17 787.04 305.69 C 798.81 305.11 810.46 307.37 821.84 310.15 C 821.57 315.39 820.28 320.48 819.34 325.63 C 809.56 322.35 799.24 320.55 788.92 320.67 C 784.69 320.76 779.42 322.32 778.26 326.94 C 776.74 331.00 778.60 335.53 781.85 338.15 C 792.15 346.94 807.09 346.87 817.45 355.55 C 823.17 360.20 826.22 367.64 825.80 374.96 C 826.04 384.02 822.44 393.85 814.37 398.67 C 804.75 404.75 792.89 403.88 782.02 403.51 C 773.28 402.90 764.53 401.74 756.05 399.51 C 756.54 394.11 757.45 388.77 757.96 383.38 C 769.40 386.43 781.37 389.56 793.27 387.53 C 797.18 386.95 801.55 384.95 802.67 380.79 C 804.24 376.91 802.31 372.37 798.86 370.23 C 789.06 363.66 776.37 363.31 766.87 356.19 C 759.88 351.19 754.88 342.83 755.36 334.07 C 755.61 326.20 758.20 317.80 764.51 312.68 Z" />
<path fill="#191919" d=" M 683.93 306.46 C 697.98 304.18 712.23 306.80 725.89 310.17 C 725.72 315.41 724.22 320.48 723.35 325.62 C 714.55 322.63 705.32 321.00 696.04 320.65 C 692.28 320.55 688.23 320.73 685.04 322.94 C 681.34 325.84 680.82 331.71 683.50 335.47 C 686.19 339.33 690.53 341.54 694.69 343.47 C 703.35 347.53 713.34 348.91 720.92 355.09 C 726.67 359.55 730.07 366.78 729.82 374.06 C 730.24 383.52 726.59 393.95 718.04 398.88 C 708.48 404.73 696.82 403.88 686.09 403.51 C 677.34 402.90 668.57 401.73 660.07 399.51 C 660.56 394.09 661.35 388.71 662.29 383.36 C 672.26 386.34 682.62 388.60 693.09 388.11 C 698.02 387.60 704.44 386.78 706.47 381.45 C 708.55 377.45 706.47 372.44 702.81 370.18 C 693.00 363.66 680.34 363.28 670.86 356.16 C 664.14 351.33 659.18 343.43 659.36 334.98 C 659.40 327.66 661.49 320.02 666.54 314.53 C 671.10 309.82 677.54 307.41 683.93 306.46 Z" />
<path fill="#191919" d=" M 459.39 402.24 C 459.32 370.76 459.29 339.27 459.40 307.79 C 481.15 307.77 502.89 307.78 524.64 307.78 C 525.24 312.98 525.34 318.21 525.41 323.43 C 510.89 323.57 496.37 323.36 481.85 323.54 C 481.83 332.49 481.84 341.43 481.84 350.38 C 494.63 350.53 507.43 350.33 520.22 350.48 C 520.24 355.72 520.26 360.96 520.21 366.20 C 507.42 366.30 494.63 366.11 481.84 366.30 C 481.81 378.28 481.90 390.26 481.79 402.24 C 474.32 402.26 466.85 402.26 459.39 402.24 Z" />
<path fill="#191919" d=" M 855.45 402.22 C 855.37 370.72 855.39 339.22 855.44 307.72 C 863.17 307.70 870.90 307.70 878.64 307.73 C 878.70 339.22 878.73 370.73 878.63 402.22 C 870.90 402.24 863.17 402.24 855.45 402.22 Z" />
<path fill="#191919" d=" M 912.84 349.01 C 913.05 335.27 912.40 321.51 913.20 307.79 C 920.88 307.78 928.55 307.76 936.23 307.80 C 936.33 333.97 936.18 360.13 936.31 386.30 C 948.83 386.37 961.36 386.26 973.89 386.36 C 973.71 391.64 973.48 396.93 973.25 402.21 C 953.22 402.25 933.20 402.24 913.17 402.22 C 912.41 384.51 913.04 366.74 912.84 349.01 Z" />
<path fill="#ffffff" d=" M 586.75 321.86 C 594.14 320.64 602.90 321.92 607.84 328.09 C 613.71 335.72 613.69 345.83 614.13 354.99 C 613.72 364.01 613.84 373.84 608.53 381.59 C 603.59 388.72 593.82 390.34 585.85 388.55 C 579.82 387.54 574.77 383.09 572.57 377.46 C 568.92 368.13 569.21 357.89 569.53 348.05 C 570.11 341.03 571.11 333.43 575.82 327.87 C 578.54 324.54 582.58 322.62 586.75 321.86 Z" />
<path fill="#191919" d=" M 792.88 455.01 C 795.08 454.63 797.34 454.86 799.58 454.83 C 800.01 466.31 799.68 477.80 799.81 489.28 C 802.41 489.29 805.02 489.30 807.63 489.38 C 807.70 492.18 807.70 494.98 807.65 497.78 C 805.17 497.95 802.68 497.94 800.21 497.87 C 799.73 501.67 799.80 505.50 799.76 509.33 C 796.30 509.40 792.83 509.40 789.38 509.33 C 789.21 505.63 789.25 501.93 789.27 498.24 C 780.97 498.01 772.66 498.52 764.39 497.93 C 764.52 494.69 763.69 491.18 764.78 488.11 C 772.84 478.10 781.25 468.36 789.39 458.41 C 790.49 457.22 791.37 455.71 792.88 455.01 Z" />
<path fill="#191919" d=" M 619.58 455.72 C 622.20 455.75 624.83 455.75 627.46 455.79 C 627.67 473.64 627.63 491.49 627.48 509.33 C 623.88 509.40 620.29 509.41 616.70 509.31 C 616.52 496.81 616.71 484.30 616.59 471.80 C 613.59 471.80 610.59 471.80 607.59 471.73 C 607.62 469.52 607.27 467.25 607.81 465.10 C 611.46 461.65 615.67 458.86 619.58 455.72 Z" />
<path fill="#191919" d=" M 656.27 460.25 C 662.98 452.65 676.03 452.65 682.88 460.05 C 687.95 465.83 689.09 474.16 687.80 481.53 C 685.87 495.80 674.00 507.77 660.12 510.84 C 659.05 508.03 657.97 505.22 657.11 502.35 C 664.41 499.73 673.31 496.23 675.12 487.71 C 670.34 489.28 664.90 490.40 660.25 487.81 C 650.09 483.09 648.61 467.88 656.27 460.25 Z" />
<path fill="#191919" d=" M 711.37 483.71 C 710.48 474.45 710.56 465.04 711.30 455.78 C 720.43 455.75 729.57 455.72 738.70 455.80 C 738.84 458.91 738.84 462.04 738.68 465.16 C 732.72 465.21 726.77 465.12 720.81 465.23 C 720.81 468.29 720.81 471.36 720.82 474.43 C 726.23 474.49 732.16 473.91 736.91 477.10 C 745.75 482.40 747.50 495.99 740.60 503.54 C 732.67 512.88 716.17 512.22 708.96 502.34 C 710.96 500.27 712.92 498.16 715.12 496.31 C 718.15 496.98 720.61 499.26 723.70 499.91 C 728.19 501.56 733.78 497.98 733.82 493.09 C 734.54 488.84 731.18 484.49 726.87 484.28 C 721.71 483.95 716.50 484.57 711.37 483.71 Z" />
<path fill="#ffffff" d=" M 668.63 464.76 C 674.73 463.85 679.98 471.32 676.62 476.67 C 674.08 482.28 664.98 482.29 662.42 476.71 C 659.51 471.93 663.19 465.30 668.63 464.76 Z" />
<path fill="#ffffff" d=" M 775.52 488.73 C 780.36 483.51 784.87 478.00 789.47 472.57 C 789.59 477.98 789.51 483.39 789.55 488.80 C 784.87 489.34 780.19 488.87 775.52 488.73 Z" />
</svg>
