<?xml version="1.0" encoding="UTF-8" standalone="no"?>
<!-- Created with Inkscape (http://www.inkscape.org/) -->

<svg
   xmlns:dc="http://purl.org/dc/elements/1.1/"
   xmlns:cc="http://creativecommons.org/ns#"
   xmlns:rdf="http://www.w3.org/1999/02/22-rdf-syntax-ns#"
   xmlns:svg="http://www.w3.org/2000/svg"
   xmlns="http://www.w3.org/2000/svg"
   version="1.1"
   width="892.91339"
   height="154.13385"
   id="svg3203">
  <defs
     id="defs3205">
    <clipPath
       id="clipPath8247">
      <path
         d="m 0,0 595.276,0 0,283.465 L 0,283.465 0,0 z"
         id="path8249" />
    </clipPath>
    <clipPath
       id="clipPath8231">
      <path
         d="m 0,0 595.276,0 0,283.465 L 0,283.465 0,0 z"
         id="path8233" />
    </clipPath>
  </defs>
  <metadata
     id="metadata3208">
    <rdf:RDF>
      <cc:Work
         rdf:about="">
        <dc:format>image/svg+xml</dc:format>
        <dc:type
           rdf:resource="http://purl.org/dc/dcmitype/StillImage" />
        <dc:title></dc:title>
      </cc:Work>
    </rdf:RDF>
  </metadata>
  <g
     transform="translate(-71.37232,-440.35226)"
     id="layer1">
    <g
       transform="translate(3.5433027,-3.5144275)"
       id="g3264">
      <g
         transform="matrix(10.274875,0,0,-10.274875,256.50091,520.93875)"
         id="g8215">
        <path
           d="m 0,0 c 0,0.338 0.024,0.671 0.069,0.996 l 14.179,0 C 14.294,0.671 14.317,0.338 14.317,0 14.317,-3.953 11.112,-7.158 7.159,-7.158 3.205,-7.158 0,-3.953 0,0 m 0.629,2.94 c 1.123,2.487 3.624,4.219 6.53,4.219 2.906,0 5.407,-1.732 6.528,-4.219 l -13.058,0 z"
           id="path8217"
           style="fill:#e53138;fill-opacity:1;fill-rule:nonzero;stroke:none" />
      </g>
      <g
         transform="matrix(10.274875,0,0,-10.274875,190.16739,510.77172)"
         id="g8219">
        <path
           d="m 0,0 c 0.538,0 0.974,0.438 0.974,0.976 0,0.522 -0.408,0.948 -0.924,0.974 l -9.14,0 1.059,3.867 8.544,0 c 2.675,0 4.844,-2.169 4.844,-4.845 0,-2.675 -2.169,-4.844 -4.844,-4.844 l -3.542,0 -1.499,-0.006 c -0.416,-0.01 -0.792,-0.269 -0.963,-0.635 l -0.094,-0.339 -0.772,-2.884 -4.366,0 c -0.51,0.026 -0.88,0.451 -0.835,0.97 L -9.708,0.012 0,0 z"
           id="path8221"
           style="fill:#000000;fill-opacity:1;fill-rule:nonzero;stroke:none" />
      </g>
      <g
         transform="matrix(10.274875,0,0,-10.274875,444.87636,451.00483)"
         id="g8223">
        <path
           d="m 0,0 5.46,0 -1.071,-3.867 -5.446,0 L 0,0 z"
           id="path8225"
           style="fill:#000000;fill-opacity:1;fill-rule:nonzero;stroke:none" />
      </g>
      <g
         transform="matrix(10.274875,0,0,-10.274875,-74.253468,854.06146)"
         id="g8227">
        <g
           clip-path="url(#clipPath8231)"
           id="g8229">
          <g
             transform="translate(59.4527,29.9395)"
             id="g8235">
            <path
               d="m 0,0 c 0.538,0 0.974,-0.433 0.981,-0.97 l -1.065,-3.295 -11.509,10e-4 c -0.511,0.024 -0.882,0.446 -0.84,0.964 l 1.892,6.778 5.447,0 -0.679,-2.504 C -5.82,0.437 -5.423,0.001 -4.887,0.001 L 0,0.002 0,0 z"
               id="path8237"
               style="fill:#000000;fill-opacity:1;fill-rule:nonzero;stroke:none" />
          </g>
        </g>
      </g>
      <g
         transform="matrix(10.274875,0,0,-10.274875,654.5208,451.00483)"
         id="g8239">
        <path
           d="m 0,0 4.515,0 0.591,-3.867 -8.092,0 L 0,0 z"
           id="path8241"
           style="fill:#000000;fill-opacity:1;fill-rule:nonzero;stroke:none" />
      </g>
      <g
         transform="matrix(10.274875,0,0,-10.274875,-74.253468,854.06146)"
         id="g8243">
        <g
           clip-path="url(#clipPath8247)"
           id="g8245">
          <g
             transform="translate(76.3519,33.4175)"
             id="g8251">
            <path
               d="m 0,0 1.167,-7.743 -5.463,0 -0.459,3.159 c -0.113,0.406 -0.48,0.706 -0.92,0.717 l -1.026,0 c -0.377,0 -0.726,-0.182 -0.956,-0.464 l -2.628,-3.412 -3.956,0.001 c -0.526,0.012 -0.91,0.442 -0.864,0.971 L -9.884,0 0,0 z"
               id="path8253"
               style="fill:#000000;fill-opacity:1;fill-rule:nonzero;stroke:none" />
          </g>
          <g
             transform="translate(90.4575,33.4106)"
             id="g8255">
            <path
               d="m 0,0 c 0.539,0 0.976,0.438 0.976,0.976 0,0.522 -0.41,0.948 -0.925,0.974 l -9.139,0 1.058,3.867 8.544,0 c 2.676,0 4.845,-2.169 4.845,-4.845 0,-1.884 -1.075,-3.516 -2.644,-4.317 l 1.387,-4.391 -5.463,0 -1.042,3.159 c -0.1,0.362 -0.404,0.641 -0.781,0.704 L -4.526,-3.878 C -4.597,-3.88 -4.666,-3.889 -4.734,-3.904 L -5.336,-4.272 C -5.397,-4.345 -5.449,-4.425 -5.49,-4.513 l -0.094,-0.339 -0.772,-2.884 -4.366,0 c -0.51,0.026 -0.88,0.451 -0.834,0.97 L -9.706,0.012 0,0 z"
               id="path8257"
               style="fill:#000000;fill-opacity:1;fill-rule:nonzero;stroke:none" />
          </g>
          <g
             transform="translate(98.3549,27.3861)"
             id="g8259">
            <path
               d="m 0,0 0,0.652 0.527,0 c 0.226,0 0.46,-0.034 0.46,-0.322 C 0.987,-0.043 0.604,0 0.343,0 L 0,0 z m 0.652,-0.178 c 0.327,0.008 0.579,0.144 0.579,0.505 0,0.304 -0.164,0.486 -0.652,0.486 l -0.805,0 0,-1.84 0.226,0 0,0.849 0.414,0 0.526,-0.849 0.269,0 -0.557,0.849 z M 0.388,-1.54 c -0.805,0 -1.393,0.626 -1.393,1.436 0,0.8 0.588,1.426 1.393,1.426 0.8,0 1.382,-0.626 1.382,-1.426 0,-0.81 -0.582,-1.436 -1.382,-1.436 m 0,-0.218 c 0.908,0 1.643,0.74 1.643,1.654 0,0.904 -0.735,1.644 -1.643,1.644 -0.915,0 -1.654,-0.74 -1.654,-1.644 0,-0.914 0.739,-1.654 1.654,-1.654"
               id="path8261"
               style="fill:#000000;fill-opacity:1;fill-rule:nonzero;stroke:none" />
          </g>
        </g>
      </g>
    </g>
  </g>
</svg>
