<?xml version="1.0" encoding="UTF-8" ?>
<!DOCTYPE svg PUBLIC "-//W3C//DTD SVG 1.1//EN" "http://www.w3.org/Graphics/SVG/1.1/DTD/svg11.dtd">
<svg width="383pt" height="97pt" viewBox="0 0 383 97" version="1.1" xmlns="http://www.w3.org/2000/svg">
<g id="#000000ff">
<path fill="#000000" opacity="1.00" d=" M 2.15 5.08 C 4.36 1.00 9.66 -0.13 13.93 0.46 C 17.38 0.75 20.11 3.01 22.54 5.27 C 21.53 6.01 20.52 6.75 19.51 7.49 C 16.17 4.35 10.38 1.95 6.54 5.57 C 4.96 7.34 5.18 10.41 7.23 11.74 C 11.16 14.66 16.29 15.63 19.93 19.00 C 23.78 22.61 22.99 29.78 18.56 32.58 C 15.84 34.73 12.17 34.06 8.96 34.07 C 5.44 34.13 2.86 31.40 0.00 29.76 L 0.00 28.34 C 1.08 27.98 2.16 27.60 3.23 27.21 C 6.25 29.50 9.92 31.63 13.87 30.62 C 17.75 30.17 19.62 24.84 16.94 22.03 C 13.40 18.51 8.09 17.77 4.23 14.70 C 1.30 12.54 0.53 8.27 2.15 5.08 Z" />
<path fill="#000000" opacity="1.00" d=" M 26.49 13.76 C 30.15 8.51 40.10 7.87 42.81 14.24 C 44.08 20.77 43.16 27.52 43.36 34.14 C 41.89 33.88 40.34 33.66 39.35 32.40 C 35.87 34.63 31.05 35.07 27.73 32.28 C 24.59 29.72 24.55 24.23 27.78 21.73 C 31.15 18.83 35.81 18.80 39.98 18.23 C 39.24 16.40 39.22 13.75 36.92 13.14 C 33.18 11.10 30.00 16.65 26.49 13.76 M 30.19 24.27 C 28.27 26.35 29.29 30.07 32.00 30.89 C 34.76 32.04 37.36 30.23 39.68 28.96 C 39.65 26.45 39.64 23.93 39.61 21.42 C 36.40 21.91 32.60 21.72 30.19 24.27 Z" />
<path fill="#000000" opacity="1.00" d=" M 48.21 10.49 C 49.36 10.33 50.51 10.17 51.65 10.01 C 51.72 10.50 51.84 11.48 51.91 11.97 C 56.16 9.31 61.83 8.69 65.75 12.30 C 70.33 9.35 78.39 7.80 81.38 13.61 C 83.24 20.14 82.01 27.09 82.33 33.80 C 81.39 33.81 79.50 33.82 78.55 33.82 C 78.46 28.86 78.64 23.90 78.49 18.94 C 78.41 16.85 78.00 14.21 75.84 13.27 C 72.73 11.97 69.58 13.78 66.78 14.99 C 67.31 21.25 67.09 27.54 67.10 33.82 C 65.83 33.80 64.56 33.79 63.29 33.78 C 63.17 28.21 63.57 22.61 63.11 17.05 C 62.98 14.90 61.27 12.95 59.07 12.83 C 56.51 12.66 54.28 14.16 52.04 15.16 C 51.86 21.38 51.97 27.59 51.94 33.81 C 50.68 33.80 49.43 33.80 48.18 33.80 C 48.19 26.03 48.14 18.26 48.21 10.49 Z" />
<path fill="#000000" opacity="1.00" d=" M 89.77 10.73 C 94.05 8.52 99.52 9.76 102.66 13.36 C 102.00 13.82 100.68 14.75 100.02 15.22 C 97.77 13.62 94.98 11.84 92.14 13.17 C 90.33 13.73 89.70 16.54 91.41 17.59 C 94.65 19.85 99.12 20.18 101.72 23.36 C 104.03 26.52 102.94 31.67 99.25 33.28 C 94.59 35.41 88.57 34.23 85.77 29.73 C 86.71 29.21 87.64 28.69 88.58 28.17 C 90.53 30.19 93.11 31.92 96.06 31.12 C 98.91 31.13 100.41 27.48 98.61 25.40 C 95.84 22.84 91.76 22.52 88.80 20.24 C 85.83 17.82 86.31 12.49 89.77 10.73 Z" />
<path fill="#000000" opacity="1.00" d=" M 106.32 10.54 C 107.58 10.34 108.85 10.13 110.11 9.92 C 110.20 15.29 109.96 20.66 110.18 26.03 C 110.13 28.29 111.60 30.64 113.94 31.02 C 116.92 31.82 119.74 30.30 122.33 29.05 C 122.37 22.77 122.36 16.50 122.34 10.22 C 123.61 10.21 124.88 10.19 126.15 10.18 C 126.18 18.17 126.22 26.16 126.13 34.16 C 124.66 33.83 123.18 33.47 121.91 32.61 C 117.09 35.07 108.75 35.55 106.85 29.21 C 105.71 23.07 106.52 16.76 106.32 10.54 Z" />
<path fill="#000000" opacity="1.00" d=" M 131.93 10.91 C 132.99 10.45 134.07 10.03 135.17 9.64 C 135.25 10.22 135.43 11.39 135.52 11.97 C 139.02 10.14 143.10 8.85 147.00 10.26 C 150.00 11.11 151.51 14.27 151.70 17.18 C 152.02 22.71 151.73 28.26 151.82 33.80 C 150.57 33.80 149.32 33.81 148.07 33.81 C 147.95 28.49 148.29 23.15 147.91 17.83 C 147.86 15.62 146.46 13.19 144.07 12.95 C 141.04 12.17 138.23 13.84 135.62 15.11 C 135.57 21.33 135.58 27.56 135.60 33.78 C 134.34 33.78 133.08 33.79 131.82 33.80 C 131.92 26.17 131.63 18.53 131.93 10.91 Z" />
<path fill="#000000" opacity="1.00" d=" M 160.61 11.66 C 165.10 8.69 170.75 9.84 175.77 10.26 C 175.73 17.85 175.82 25.43 175.75 33.02 C 175.75 36.35 175.09 40.22 172.03 42.14 C 167.00 45.04 160.21 43.96 156.08 39.94 C 156.95 39.26 157.82 38.57 158.69 37.87 C 161.65 40.36 166.02 41.76 169.58 39.66 C 171.97 38.34 171.72 35.29 172.23 33.00 C 168.66 33.79 164.65 34.79 161.26 32.84 C 153.74 28.73 153.40 16.26 160.61 11.66 M 163.67 13.78 C 158.21 16.79 157.69 25.60 162.46 29.45 C 165.17 31.64 168.77 30.62 171.83 29.95 C 172.02 24.26 171.92 18.57 171.94 12.88 C 169.18 12.91 166.19 12.38 163.67 13.78 Z" />
<path fill="#000000" opacity="1.00" d=" M 7.63 49.71 C 14.56 47.41 21.98 48.80 29.05 49.69 C 28.92 51.10 28.79 52.52 28.66 53.94 C 22.60 53.30 16.38 52.08 10.34 53.51 C 7.23 54.15 5.27 57.15 5.19 60.21 C 4.84 67.47 5.16 74.75 5.03 82.01 C 5.02 85.34 5.21 89.66 8.69 91.29 C 13.88 93.51 19.68 92.25 25.09 91.68 C 25.13 86.12 25.12 80.56 25.11 75.00 C 26.70 75.01 28.30 75.01 29.89 75.01 C 29.88 81.65 29.87 88.30 29.90 94.95 C 25.21 95.96 20.47 96.77 15.68 97.00 L 15.24 97.00 C 10.99 96.79 6.16 96.29 3.15 92.90 C -0.19 89.15 0.27 83.76 0.20 79.09 C 0.41 72.42 -0.12 65.72 0.48 59.06 C 0.82 54.88 3.60 51.03 7.63 49.71 Z" />
<path fill="#000000" opacity="1.00" d=" M 52.39 49.22 C 54.57 49.21 56.76 49.19 58.95 49.18 C 64.47 64.82 69.88 80.50 75.34 96.16 C 73.78 96.19 72.22 96.23 70.67 96.27 C 68.59 90.67 66.78 84.99 64.75 79.38 C 58.69 79.42 52.63 79.39 46.57 79.41 C 44.67 85.00 42.71 90.56 40.84 96.16 C 39.24 96.18 37.65 96.21 36.06 96.23 C 41.41 80.53 46.99 64.91 52.39 49.22 M 48.07 74.97 C 53.13 75.01 58.19 75.01 63.25 74.99 C 60.72 67.72 58.29 60.42 55.69 53.18 C 52.96 60.37 50.67 67.73 48.07 74.97 Z" />
<path fill="#000000" opacity="1.00" d=" M 80.11 48.39 C 81.71 48.42 83.31 48.43 84.90 48.43 C 84.90 59.95 84.83 71.48 84.91 83.00 C 84.88 86.31 85.62 90.54 89.32 91.61 C 95.76 93.44 102.57 92.31 109.17 92.60 C 109.17 93.63 109.18 95.71 109.18 96.74 C 105.98 96.78 102.79 96.88 99.59 97.00 L 94.42 97.00 C 90.40 96.73 85.90 96.11 83.06 92.94 C 80.36 89.99 80.11 85.75 80.09 81.96 C 80.13 70.77 80.12 59.58 80.11 48.39 Z" />
<path fill="#000000" opacity="1.00" d=" M 131.39 49.22 C 133.59 49.21 135.80 49.20 138.01 49.19 C 143.49 64.84 148.92 80.51 154.37 96.17 C 152.81 96.19 151.25 96.22 149.69 96.26 C 147.63 90.66 145.78 84.99 143.76 79.38 C 137.71 79.41 131.66 79.39 125.61 79.40 C 123.70 84.99 121.75 90.56 119.87 96.16 C 118.27 96.18 116.68 96.21 115.08 96.23 C 120.43 80.53 126.00 64.91 131.39 49.22 M 134.65 53.03 C 132.14 60.34 129.66 67.67 127.10 74.96 C 132.16 75.02 137.22 75.00 142.28 75.00 C 139.74 67.67 137.30 60.31 134.65 53.03 Z" />
<path fill="#000000" opacity="1.00" d=" M 159.29 49.20 C 161.07 49.20 162.86 49.21 164.64 49.22 C 168.82 55.50 172.73 61.97 177.11 68.11 C 181.77 62.13 185.50 55.37 189.87 49.14 C 191.59 49.18 193.31 49.23 195.04 49.28 C 189.92 56.90 184.98 64.64 179.86 72.25 C 184.96 80.31 190.36 88.17 195.51 96.20 C 193.74 96.19 191.98 96.18 190.22 96.16 C 185.92 89.50 181.54 82.90 177.18 76.28 C 172.80 82.91 168.46 89.57 164.09 96.21 C 162.33 96.20 160.58 96.19 158.83 96.18 C 164.06 88.21 169.37 80.29 174.56 72.30 C 169.43 64.62 164.39 56.89 159.29 49.20 Z" />
<path fill="#000000" opacity="1.00" d=" M 199.21 49.19 C 200.87 49.20 202.53 49.19 204.20 49.19 C 208.71 58.31 213.01 67.53 217.60 76.61 C 222.07 67.47 226.50 58.31 230.99 49.19 C 232.65 49.19 234.32 49.20 235.99 49.21 C 230.90 59.67 225.65 70.06 220.60 80.54 C 219.28 85.62 220.31 91.01 220.00 96.21 C 218.39 96.18 216.77 96.20 215.16 96.17 C 214.71 90.03 216.60 83.29 213.27 77.70 C 208.52 68.23 203.87 58.71 199.21 49.19 Z" />
<path fill="#000000" opacity="1.00" d=" M 259.97 50.56 C 264.67 50.22 269.41 50.39 274.12 50.42 C 277.60 49.92 275.89 54.34 276.33 56.35 C 270.87 56.61 265.36 56.00 259.93 56.67 C 256.87 57.04 255.09 60.11 255.17 62.98 C 255.09 69.67 255.00 76.37 255.21 83.06 C 255.18 85.82 257.35 88.25 260.05 88.66 C 264.21 89.23 268.53 89.29 272.66 88.47 C 275.47 87.79 276.89 84.78 276.79 82.08 C 276.77 79.72 276.99 76.68 274.77 75.17 C 271.90 73.71 268.24 75.19 265.49 73.77 C 265.29 72.00 265.34 70.22 265.34 68.45 C 270.52 68.34 277.11 67.54 280.43 72.53 C 283.94 78.26 283.81 86.98 278.71 91.77 C 273.80 95.97 266.87 95.03 260.90 94.88 C 254.68 94.83 249.08 89.40 249.15 83.12 C 249.09 76.08 249.06 69.03 249.16 61.99 C 249.23 56.17 254.17 50.96 259.97 50.56 Z" />
<path fill="#000000" opacity="1.00" d=" M 294.82 57.83 C 299.00 56.26 303.60 56.80 307.98 56.85 C 312.39 56.79 316.62 59.60 318.15 63.75 C 320.70 69.42 317.21 76.84 311.03 78.08 C 305.29 79.15 299.40 78.37 293.59 78.61 C 293.81 82.08 293.10 87.49 297.59 88.48 C 302.98 89.51 308.52 88.77 313.97 89.06 C 313.97 91.00 313.95 92.94 313.92 94.89 C 308.12 94.93 302.23 95.45 296.48 94.41 C 291.59 93.50 287.98 88.85 287.81 83.95 C 287.58 78.66 287.66 73.35 287.76 68.06 C 287.82 63.64 290.84 59.60 294.82 57.83 M 297.28 63.36 C 293.40 64.61 293.74 69.27 293.52 72.53 C 298.98 72.42 304.55 73.17 309.94 72.08 C 314.30 71.13 313.70 64.42 309.77 63.29 C 305.69 62.50 301.33 62.42 297.28 63.36 Z" />
<path fill="#000000" opacity="1.00" d=" M 326.19 56.91 C 333.19 57.24 341.30 55.13 347.37 59.59 C 352.42 63.47 351.50 70.40 351.55 76.01 C 351.40 81.18 352.51 87.36 348.38 91.36 C 343.58 96.23 336.08 95.03 329.91 94.78 C 323.52 94.36 319.05 87.42 320.54 81.37 C 321.44 77.31 324.91 73.98 329.05 73.36 C 334.57 72.62 340.16 73.17 345.72 72.95 C 345.44 69.73 346.17 65.19 342.63 63.48 C 337.30 62.13 331.70 63.09 326.26 62.74 C 326.21 60.80 326.19 58.85 326.19 56.91 M 327.07 81.13 C 325.12 83.82 326.87 88.19 330.22 88.65 C 334.18 89.20 338.39 89.42 342.26 88.25 C 345.95 86.82 345.51 82.32 345.79 79.11 C 341.52 79.00 337.24 78.87 332.98 79.05 C 330.90 79.17 328.44 79.32 327.07 81.13 Z" />
<path fill="#000000" opacity="1.00" d=" M 357.91 56.85 C 359.83 56.83 361.74 56.82 363.66 56.81 C 363.72 60.55 363.73 64.29 363.62 68.02 C 365.17 65.00 366.61 61.62 369.65 59.78 C 373.35 57.32 377.99 58.10 382.18 58.03 C 382.20 59.97 382.19 61.92 382.18 63.86 C 377.26 63.77 371.68 64.20 368.35 68.35 C 361.76 75.63 364.86 86.08 364.05 94.91 C 362.01 94.95 359.98 94.96 357.95 94.95 C 357.82 82.25 357.88 69.55 357.91 56.85 Z" />
</g>
</svg>
